<svg xmlns="http://www.w3.org/2000/svg" viewBox="0 0 410 404"><defs><linearGradient id="a" x1="6.502" x2="42.477" y1="33.008" y2="2.591" gradientUnits="userSpaceOnUse"><stop offset=".08" stop-color="#ffea83"/><stop offset=".837" stop-color="#ffdd35"/><stop offset="1" stop-color="#ffa800"/></linearGradient><linearGradient id="b" x1="18.976" x2="56.182" y1="36.337" y2="-.868" gradientUnits="userSpaceOnUse"><stop offset=".08" stop-color="#16bffd"/><stop offset=".837" stop-color="#cb64ff"/><stop offset="1" stop-color="#ff61ff"/></linearGradient></defs><path fill="#646cff" d="M399.641 59.525 215.643 388.545c-5.556 9.688-19.723 9.724-25.324.064L10.396 59.571c-5.964-10.131 1.604-22.809 13.056-21.244l171.114 23.124a15 15 0 0 0 16.866-11.403l11.964-54.21c2.167-9.813 15.94-9.775 18.025.052l12.356 54.233a15 15 0 0 0 17.005 11.365l171.193-22.97c11.437-1.535 18.988 11.104 13.005 21.23Z"/><path fill="url(#a)" d="m273.494.063-68.812 144.346a7.5 7.5 0 0 1-13.468-.088L160.38 80.534a7.5 7.5 0 0 0-6.316-4.184L49.113 64.042c-7.686-.901-11.693 8.997-5.355 13.934l277.358 213.92c6.068 4.677 14.865-.483 13.144-7.889L283.26 4.023c-1.635-7.14-11.597-8.098-14.54-1.04Z"/><path fill="url(#b)" d="M292.965 280.523 204.44 144.219a7.5 7.5 0 0 0-13.299.114L136.31 233.89a7.5 7.5 0 0 1-6.321 4.178l-89.415 8.35c-7.707.719-11.31 10.374-5.12 15.192l160.205 122.593c5.365 4.104 13.06 1.59 15.096-4.843l35.476-110.635a7.5 7.5 0 0 1 6.321-4.178l89.055-8.33c7.707-.721 11.307-10.38 5.11-15.19Z"/></svg>
